<svg id="Layer_1" data-name="Layer 1" xmlns="http://www.w3.org/2000/svg" viewBox="0 0 1080 1080"><defs><style>.cls-1{fill:#18335c;}.cls-2{fill:#f37e77;}.cls-3{fill:#88d3e1;}</style></defs><title>logo_v2</title><rect class="cls-1" x="389.05" y="337.38" width="74.32" height="84.28"/><rect class="cls-1" x="494.91" y="337.38" width="74.32" height="84.28"/><rect class="cls-1" x="604.93" y="337.38" width="74.32" height="84.28"/><rect class="cls-1" x="389.05" y="456.95" width="74.32" height="289.17"/><rect class="cls-1" x="281.72" y="456.95" width="74.32" height="289.17"/><rect class="cls-1" x="494.91" y="456.95" width="74.32" height="289.17"/><polygon class="cls-1" points="604.93 746.12 604.93 456.95 779.31 456.95 604.93 746.12"/><path class="cls-2" d="M797.64,104.63l-43.57,64.29C598,77.38,394.62,91.08,251.26,217a431.65,431.65,0,0,0-28.6,620.66l-53,56.7a508.84,508.84,0,0,1,30.47-735.6C370.58,9,613-6.2,797.64,104.63Z"/><path class="cls-3" d="M871.55,923.28a507.66,507.66,0,0,1-61.18,46.09c-185,118.55-417.75,102.3-582.95-23.54L271,881.56c140.22,109.06,339.47,123.88,497.56,22.54a431.37,431.37,0,0,0,51.86-39c179-157.16,196.64-429.66,39.46-608.64a432,432,0,0,0-49.25-47.87l53-56.72a512.93,512.93,0,0,1,54.48,53.45C1103.51,416.43,1082.66,737.88,871.55,923.28Z"/></svg>